<mxfile host="app.diagrams.net" modified="2024-05-13T07:18:22.937Z" agent="Mozilla/5.0 (Windows NT 10.0; Win64; x64) AppleWebKit/537.36 (KHTML, like Gecko) Chrome/121.0.0.0 Safari/537.36 OPR/107.0.0.0" version="24.4.0" etag="TGjOJSEF0eGJi3BqMiKP" type="github">
  <diagram name="Page-1" id="00yrjCE6xuZlCFbx1NeY">
    <mxGraphModel>
      <root>
        <mxCell id="0" />
        <mxCell id="1" parent="0" />
      </root>
    </mxGraphModel>
  </diagram>
</mxfile>
